<!--
  The NixOS snowflake, in colour. From the NixOS artwork repository
  (logo/nix-snowflake-colours.svg), licensed CC BY 4.0:
  https://github.com/NixOS/nixos-artwork/tree/master/logo

  Flattened from the original: each lambda is drawn once, rotated into place,
  instead of through <use> copies, and the editor metadata is gone.
-->
<svg xmlns="http://www.w3.org/2000/svg" viewBox="0 0 501.56251 501.56249">
    <defs>
        <linearGradient id="light" gradientUnits="userSpaceOnUse" gradientTransform="translate(70.650339,-1055.1511)" x1="200.59668" y1="351.41116" x2="290.08701" y2="506.18814">
            <stop offset="0" stop-color="#699ad7"/>
            <stop offset="0.24345198" stop-color="#7eb1dd"/>
            <stop offset="1" stop-color="#7ebae4"/>
        </linearGradient>
        <linearGradient id="dark" gradientUnits="userSpaceOnUse" gradientTransform="translate(864.69589,-1491.3405)" x1="-584.19934" y1="782.33563" x2="-496.29703" y2="937.71399">
            <stop offset="0" stop-color="#415e9a"/>
            <stop offset="0.23168644" stop-color="#4a6baf"/>
            <stop offset="1" stop-color="#5277c3"/>
        </linearGradient>
    </defs>
    <g fill-rule="evenodd" transform="translate(-156.41121,933.30685) matrix(0.99994059,0,0,0.99994059,-0.06321798,33.188377)">
        <path fill="url(#light)" transform="rotate(60,407.11155,-715.78724)" d="m 309.54892,-710.38827 122.19683,211.67512 -56.15706,0.5268 -32.6236,-56.8692 -32.85645,56.5653 -27.90237,-0.011 -14.29086,-24.6896 46.81047,-80.4901 -33.22946,-57.8257 z"/>
        <path fill="url(#light)" transform="rotate(-60,407.31177,-715.70016)" d="m 309.54892,-710.38827 122.19683,211.67512 -56.15706,0.5268 -32.6236,-56.8692 -32.85645,56.5653 -27.90237,-0.011 -14.29086,-24.6896 46.81047,-80.4901 -33.22946,-57.8257 z"/>
        <path fill="url(#light)" transform="rotate(180,407.41868,-715.7565)" d="m 309.54892,-710.38827 122.19683,211.67512 -56.15706,0.5268 -32.6236,-56.8692 -32.85645,56.5653 -27.90237,-0.011 -14.29086,-24.6896 46.81047,-80.4901 -33.22946,-57.8257 z"/>
        <path fill="url(#dark)" d="m 309.54892,-710.38827 122.19683,211.67512 -56.15706,0.5268 -32.6236,-56.8692 -32.85645,56.5653 -27.90237,-0.011 -14.29086,-24.6896 46.81047,-80.4901 -33.22946,-57.8257 z"/>
        <path fill="url(#dark)" transform="rotate(120,407.33916,-716.08356)" d="m 309.54892,-710.38827 122.19683,211.67512 -56.15706,0.5268 -32.6236,-56.8692 -32.85645,56.5653 -27.90237,-0.011 -14.29086,-24.6896 46.81047,-80.4901 -33.22946,-57.8257 z"/>
        <path fill="url(#dark)" transform="rotate(-120,407.28823,-715.86995)" d="m 309.54892,-710.38827 122.19683,211.67512 -56.15706,0.5268 -32.6236,-56.8692 -32.85645,56.5653 -27.90237,-0.011 -14.29086,-24.6896 46.81047,-80.4901 -33.22946,-57.8257 z"/>
    </g>
</svg>
